<?xml version="1.0" encoding="UTF-8" standalone="no"?>
<!-- Created with Inkscape (http://www.inkscape.org/) -->

<svg
   version="1.1"
   id="svg162"
   width="24"
   height="24"
   viewBox="0 0 24 24"
   xmlns="http://www.w3.org/2000/svg"
   xmlns:svg="http://www.w3.org/2000/svg">
  <defs
     id="defs166" />
  <g
     id="g168">
    <path
       style="fill:#000000;stroke-width:0.0226872"
       d="M 2.2391332,22.142466 C 1.8717882,22.098309 1.4500414,21.904058 1.1635643,21.647073 0.92351626,21.431737 0.70812176,21.088701 0.59958396,20.74888 c -0.038266,-0.119808 -0.053525,-0.234528 -0.06213,-0.46712 -0.012641,-0.341661 0.01907,-0.561918 0.1157218,-0.803774 0.1790785,-0.448117 2.18895514,-4.831887 2.27394004,-4.959723 0.1337102,-0.201129 0.4378771,-0.484793 0.6463453,-0.602778 0.092622,-0.05242 0.2653905,-0.128989 0.3839309,-0.170154 l 0.215528,-0.07484 4.9344563,-0.0066 4.9344557,-0.0066 0.2121,0.04841 c 0.257758,0.05883 0.590925,0.2207 0.792861,0.385226 0.166999,0.136061 0.350642,0.351887 0.457104,0.53721 0.04147,0.07218 0.648297,1.396226 1.34851,2.942316 1.021811,2.256188 1.285757,2.820449 1.337167,2.858581 0.06367,0.04722 0.07428,0.04751 1.751093,0.04751 h 1.68704 l 0.07006,-0.06712 c 0.106108,-0.101658 0.128203,-0.202854 0.07457,-0.341501 -0.05943,-0.153612 -7.396682,-16.3417195 -7.440774,-16.4165032 -0.08331,-0.1412938 0.05227,-0.1335262 -2.330524,-0.1335262 -1.900056,0 -2.1782397,0.0043 -2.2368117,0.034591 -0.04266,0.022059 -0.09042,0.081648 -0.131823,0.1644819 -0.03571,0.07144 -0.618734,1.3527662 -1.295603,2.8473908 -1.337851,2.9541698 -1.270565,2.7831258 -1.153422,2.93205 0.09983,0.1269118 0.06222,0.1243318 1.812082,0.1243318 1.7842567,0 1.7206767,0.0051 1.8100827,-0.1442101 0.02349,-0.039225 0.249831,-0.5307329 0.502973,-1.09224 0.457879,-1.015645 0.460978,-1.0216376 0.599664,-1.1593797 0.17809,-0.1768777 0.323067,-0.2358804 0.579587,-0.2358804 0.234456,0 0.391741,0.058158 0.551051,0.2037588 0.151771,0.1387099 0.234449,0.2900276 0.269202,0.4926918 0.02318,0.1351782 0.02176,0.1810283 -0.0094,0.3042093 -0.04554,0.1800074 -0.977435,2.2350962 -1.096017,2.4170192 -0.1225,0.187932 -0.425394,0.479407 -0.611622,0.588564 -0.08699,0.05099 -0.228254,0.120697 -0.313914,0.154903 -0.324655,0.129642 -0.303721,0.128566 -2.3583987,0.121317 -2.12395,-0.0075 -1.97635,0.0042 -2.366373,-0.187116 C 5.9935373,10.810412 5.6096095,10.315958 5.4877212,9.7134251 5.4344136,9.4499081 5.4511833,8.9950883 5.5225042,8.7700614 5.5680652,8.6263099 7.9596673,3.3170486 8.1489483,2.9394622 c 0.213656,-0.4262141 0.514724,-0.7200484 0.939291,-0.916722 0.393185,-0.1821366 0.204666,-0.1701074 2.7983137,-0.1785577 1.637004,-0.00533 2.366464,-4.54e-5 2.493091,0.018099 0.588702,0.084321 1.15992,0.4815932 1.427017,0.992466 0.124516,0.2381593 7.53689,16.6094295 7.578006,16.7370875 0.0954,0.296221 0.108045,0.814203 0.02714,1.111671 -0.05307,0.19509 -0.217164,0.519187 -0.354498,0.700135 -0.235348,0.310088 -0.656737,0.584743 -1.074968,0.700648 -0.18051,0.05003 -0.191541,0.0503 -2.0305,0.05075 l -1.849004,4.49e-4 -0.204184,-0.05191 c -0.491848,-0.125054 -0.964306,-0.466061 -1.208788,-0.872473 -0.04093,-0.06805 -0.647166,-1.388654 -1.347181,-2.934683 -0.700016,-1.54603 -1.294391,-2.835249 -1.320834,-2.864932 -0.109484,-0.1229 0.170664,-0.116184 -4.8464127,-0.116184 -4.9580556,0 -4.741228,-0.0047 -4.8351204,0.104633 -0.03105,0.03615 -2.0256117,4.41397 -2.1256584,4.665558 -0.043648,0.109761 -0.011365,0.229244 0.087546,0.324018 l 0.07005,0.06712 1.6560089,0.0061 c 1.7973802,0.0066 1.7603702,0.009 1.8413749,-0.115824 0.017528,-0.027 0.223602,-0.472775 0.457942,-0.990609 0.536165,-1.184795 0.528685,-1.170234 0.668284,-1.300813 0.181889,-0.170137 0.285167,-0.207883 0.568786,-0.207883 0.217313,0 0.248845,0.0056 0.359369,0.06381 0.339976,0.179057 0.524627,0.535603 0.459588,0.88743 -0.02927,0.158351 -0.974614,2.257595 -1.105356,2.454578 -0.270506,0.407555 -0.701642,0.708118 -1.202214,0.838113 -0.1426225,0.03704 -0.3091038,0.041 -1.9144608,0.04561 -0.96704,0.0028 -1.8321394,-0.0038 -1.9224429,-0.01469 z"
       id="path190" />
  </g>
</svg>
