<?xml version="1.0" encoding="UTF-8" standalone="no"?>
<svg
   viewBox="0 0 23.999999 24"
   version="1.1"
   id="svg12"
   width="24"
   height="24"
   xmlns="http://www.w3.org/2000/svg"
   xmlns:svg="http://www.w3.org/2000/svg"
   xmlns:rdf="http://www.w3.org/1999/02/22-rdf-syntax-ns#"
   xmlns:cc="http://creativecommons.org/ns#"
   xmlns:dc="http://purl.org/dc/elements/1.1/">
  <defs
     id="defs4">
    <style
       id="style2">.cls-1{fill:#ff2400;}</style>
  </defs>
  <title
     id="title6">artifactory</title>
  <g
     id="Layer_2"
     data-name="Layer 2"
     transform="matrix(0.04942294,0,0,0.04942309,-9.8992973e-4,1.377)">
    <g
       id="Layer_1-2"
       data-name="Layer 1">
      <path
         class="cls-1"
         d="m 443.94,429.88 h -66.43 a 41.77,41.77 0 0 1 -38,-24.48 L 286.78,289 a 6.39,6.39 0 0 0 -5.81,-3.74 H 85.48 A 6.39,6.39 0 0 0 79.67,289 l -43.78,96.57 a 6.38,6.38 0 0 0 5.81,9 h 66.43 a 6.41,6.41 0 0 0 5.82,-3.74 l 18.9,-41.74 A 17.650771,17.650771 0 0 1 165,363.67 l -18.9,41.73 a 41.77,41.77 0 0 1 -38,24.48 H 41.7 A 41.67,41.67 0 0 1 3.74,371 l 43.78,-96.62 a 41.75,41.75 0 0 1 38,-24.47 H 281 a 41.76,41.76 0 0 1 38,24.47 l 52.7,116.46 a 6.39,6.39 0 0 0 5.81,3.74 h 66.43 a 6.38,6.38 0 0 0 5.81,-9 L 292.73,39 a 6.38,6.38 0 0 0 -5.8,-3.74 H 198.72 A 6.39,6.39 0 0 0 192.91,39 l -52.82,116.6 a 6.38,6.38 0 0 0 5.81,9 h 66.44 a 6.39,6.39 0 0 0 5.81,-3.74 l 18.91,-41.74 a 17.65,17.65 0 1 1 32.15,14.57 l -18.91,41.74 a 41.76,41.76 0 0 1 -38,24.48 h -66.4 a 41.67,41.67 0 0 1 -38,-58.88 L 160.76,24.47 A 41.75,41.75 0 0 1 198.72,0 h 88.21 a 41.77,41.77 0 0 1 38,24.47 L 481.91,371 a 41.68,41.68 0 0 1 -38,58.88 z"
         id="path8" />
    </g>
  </g>
  <metadata
     id="metadata16">
    <rdf:RDF>
      <cc:Work
         rdf:about="">
        <dc:title>artifactory</dc:title>
      </cc:Work>
    </rdf:RDF>
  </metadata>
</svg>
