<?xml version="1.0" encoding="UTF-8" standalone="no"?>
<!-- Created with Inkscape (http://www.inkscape.org/) -->

<svg
   width="24"
   height="24"
   viewBox="0 0 6.3499998 6.3499998"
   version="1.1"
   id="svg5"
   xmlns="http://www.w3.org/2000/svg"
   xmlns:svg="http://www.w3.org/2000/svg">
  <defs
     id="defs2" />
  <g
     id="layer1">
    <path
       style="fill:#000000;stroke-width:0.00576347"
       d="M 1.8378761,5.4869234 0.50651563,4.7182139 V 3.1746677 1.6311216 L 1.8407578,0.86062428 C 2.7947161,0.30973309 3.177464,0.09150291 3.1836452,0.09495447 3.1884,0.09760959 3.788809,0.4443332 4.5178873,0.86545136 L 5.8434843,1.6311208 V 3.1746615 4.7182021 L 4.5121239,5.4869093 C 3.7798756,5.909698 3.1781699,6.25562 3.175,6.2556247 3.1718301,6.2556293 2.5701243,5.9097136 1.8378761,5.4869234 Z M 2.2849604,4.5394699 c 0.067341,-0.022554 0.1314334,-0.072818 0.1680514,-0.1317909 0.00761,-0.012249 0.048025,-0.098011 0.089821,-0.1905833 0.070765,-0.1567339 0.075993,-0.1707298 0.075993,-0.2034483 0,-0.040388 -0.00921,-0.062265 -0.039511,-0.093889 -0.048649,-0.050767 -0.1356823,-0.048204 -0.1862933,0.00549 -0.00849,0.00901 -0.04821,0.088997 -0.088264,0.1777543 -0.043795,0.097048 -0.07855,0.1665464 -0.087185,0.1743448 l -0.014359,0.012968 h -0.25365 c -0.1513589,0 -0.2578268,-0.00224 -0.2640075,-0.00554 -0.0057,-0.00305 -0.013482,-0.013087 -0.017301,-0.022307 -0.00851,-0.020539 -0.026108,0.022004 0.168217,-0.4066131 0.148766,-0.3281291 0.1574329,-0.3455707 0.1754617,-0.3531036 0.015815,-0.00661 0.1386198,-0.00767 0.7392202,-0.00642 0.6445243,0.00135 0.7212028,0.00246 0.7292734,0.010527 0.00496,0.00496 0.095483,0.1998021 0.2011625,0.4329809 0.1056791,0.2331788 0.198323,0.4364193 0.2058754,0.4516458 0.031518,0.063543 0.1062469,0.1248953 0.1806328,0.1482992 0.039661,0.012478 0.047203,0.012769 0.3316386,0.012769 0.3183016,0 0.3178236,4.61e-5 0.3883113,-0.035675 C 4.8499864,4.4854873 4.9142302,4.40758 4.9358236,4.3376685 4.9501131,4.2914045 4.9512827,4.207952 4.9382563,4.1640874 4.9290725,4.1331621 3.7970637,1.6300345 3.7638227,1.567149 3.7242857,1.4923528 3.6324732,1.4277818 3.5467435,1.414479 c -0.049751,-0.00772 -0.6937361,-0.00772 -0.743487,0 C 2.7146455,1.428229 2.6251771,1.492681 2.583407,1.572855 2.541517,1.65326 2.1750138,2.469354 2.1687289,2.4962212 c -0.010349,0.04424 -0.00763,0.1202697 0.00584,0.1634453 0.030923,0.099081 0.12488,0.1868325 0.2215267,0.2068964 0.020534,0.00426 0.1284085,0.0058 0.3297825,0.00469 0.2984335,-0.00164 0.2993597,-0.00168 0.3326309,-0.015106 0.01835,-0.00741 0.049427,-0.024264 0.06906,-0.037463 0.060998,-0.041006 0.081268,-0.072798 0.1691397,-0.2652755 0.071637,-0.1569175 0.079529,-0.1774008 0.081715,-0.2121102 0.00212,-0.033618 4.432e-4,-0.042052 -0.013397,-0.067481 C 3.3234887,2.1974982 3.2266802,2.1808622 3.163421,2.2391722 3.141826,2.2590782 3.129254,2.2828852 3.0655,2.4246065 3.022388,2.5204415 2.986531,2.5925277 2.97817,2.6001709 L 2.9639907,2.613143 H 2.7138726 c -0.1710313,0 -0.254559,-0.00202 -0.2641625,-0.0064 -0.012789,-0.00583 -0.026842,-0.026639 -0.026842,-0.039752 0,-0.013725 0.3941156,-0.8743926 0.404437,-0.8832077 0.010954,-0.00936 0.036145,-0.010086 0.3476952,-0.010086 0.3115592,0 0.3367392,7.305e-4 0.347671,0.010086 0.00886,0.00758 1.1325937,2.4755445 1.1604112,2.5485113 0.00643,0.016867 -0.0033,0.044265 -0.018638,0.052473 -0.00618,0.00331 -0.1126485,0.00554 -0.2640075,0.00554 H 4.146787 L 4.1323323,4.2773435 C 4.1228602,4.2688456 4.0502476,4.1148595 3.9216675,3.830597 3.8137517,3.5920186 3.718521,3.3858307 3.7100435,3.3724015 3.6876854,3.3369836 3.6385605,3.291934 3.5997251,3.2712349 3.5293404,3.2337203 3.5745724,3.2355973 2.7409203,3.2355973 c -0.8345908,0 -0.790284,-0.00184 -0.8611192,0.035794 -0.037593,0.019974 -0.080188,0.058771 -0.1063117,0.096833 -0.020908,0.030461 -0.3484081,0.7509502 -0.3617146,0.7957582 -0.013058,0.043972 -0.011905,0.1273663 0.0024,0.1736859 0.029383,0.095131 0.1117994,0.1754669 0.2078159,0.2025702 0.049004,0.013833 0.049832,0.013864 0.3455618,0.012863 0.2714197,-9.182e-4 0.2806268,-0.00131 0.3174063,-0.013632 z"
       id="path39" />
  </g>
</svg>
